<?xml version="1.0" standalone="no"?><!DOCTYPE svg PUBLIC "-//W3C//DTD SVG 1.1//EN" "http://www.w3.org/Graphics/SVG/1.1/DTD/svg11.dtd"><svg t="1733311466855" class="icon" viewBox="0 0 1024 1024" version="1.1" xmlns="http://www.w3.org/2000/svg" p-id="1479" xmlns:xlink="http://www.w3.org/1999/xlink" width="200" height="200"><path d="M618.3424 891.2384h-252.928a280.064 280.064 0 0 1-279.7568-279.7568V406.4256a280.1152 280.1152 0 0 1 279.7568-279.7568h252.928a280.064 280.064 0 0 1 279.7056 279.7568v205.056a280.064 280.064 0 0 1-279.7056 279.7568zM365.4144 188.1088a218.5728 218.5728 0 0 0-218.3168 218.3168v205.056a218.5216 218.5216 0 0 0 218.3168 218.3168h252.928a218.5216 218.5216 0 0 0 218.2656-218.3168V406.4256a218.5216 218.5216 0 0 0-218.2656-218.3168z" fill="#333333" p-id="1480"></path><path d="M711.3728 391.3216h171.6224a55.552 55.552 0 0 1 55.552 55.552v124.2112a55.552 55.552 0 0 1-55.552 55.552h-171.6224a117.76 117.76 0 0 1-117.76-117.76 117.76 117.76 0 0 1 117.76-117.76z" fill="#F55C04" p-id="1481"></path><path d="M433.8688 368.64H317.44a30.72 30.72 0 0 1 0-61.44h116.4288a30.72 30.72 0 1 1 0 61.44z" fill="#333333" p-id="1482"></path></svg>